<?xml version="1.0" encoding="UTF-8" standalone="no"?>
<svg
   role="img"
   viewBox="0 0 24 24"
   version="1.1"
   id="svg1"
   sodipodi:docname="uptimekuma.svg"
   inkscape:version="1.3.2 (091e20ef0f, 2023-11-25)"
   xmlns:inkscape="http://www.inkscape.org/namespaces/inkscape"
   xmlns:sodipodi="http://sodipodi.sourceforge.net/DTD/sodipodi-0.dtd"
   xmlns="http://www.w3.org/2000/svg"
   xmlns:svg="http://www.w3.org/2000/svg">
  <defs
     id="defs1" />
  <sodipodi:namedview
     id="namedview1"
     pagecolor="#ffffff"
     bordercolor="#000000"
     borderopacity="0.25"
     inkscape:showpageshadow="2"
     inkscape:pageopacity="0.0"
     inkscape:pagecheckerboard="0"
     inkscape:deskcolor="#d1d1d1"
     inkscape:zoom="36.666667"
     inkscape:cx="12"
     inkscape:cy="12"
     inkscape:window-width="1920"
     inkscape:window-height="1126"
     inkscape:window-x="0"
     inkscape:window-y="0"
     inkscape:window-maximized="1"
     inkscape:current-layer="svg1" />
  <title
     id="title1">Uptime Kuma</title>
  <path
     d="M11.759.955c-4.071 0-7.93 2.265-10.06 5.774l-.16.263-.116.284c-1.81 4.44-2.188 9.118.621 12.459 2.67 3.174 6.221 3.328 9.477 3.308 3.256-.02 6.323-.482 8.995-2.032C22.75 19.714 24 16.917 24 14.53c0-2.388-.724-4.698-1.882-7.343l-.112-.257-.148-.238C19.683 3.2 15.83.955 11.758.955Zm0 3.868c2.919 0 5.19 1.305 6.816 3.914 2.076 4.747 2.076 7.724 0 8.929-3.116 1.808-11.234 2.359-13.57-.42-1.558-1.853-1.558-4.69 0-8.51 1.584-2.608 3.835-3.913 6.754-3.913z"
     id="path1"
     style="fill:#ffffff" />
</svg>
