<?xml version="1.0" encoding="UTF-8" standalone="no"?>
<svg
   role="img"
   viewBox="0 0 24 24"
   version="1.1"
   id="svg1"
   sodipodi:docname="forgejo.svg"
   inkscape:version="1.3.2 (091e20ef0f, 2023-11-25)"
   xmlns:inkscape="http://www.inkscape.org/namespaces/inkscape"
   xmlns:sodipodi="http://sodipodi.sourceforge.net/DTD/sodipodi-0.dtd"
   xmlns="http://www.w3.org/2000/svg"
   xmlns:svg="http://www.w3.org/2000/svg">
  <defs
     id="defs1" />
  <sodipodi:namedview
     id="namedview1"
     pagecolor="#ffffff"
     bordercolor="#000000"
     borderopacity="0.25"
     inkscape:showpageshadow="2"
     inkscape:pageopacity="0.0"
     inkscape:pagecheckerboard="0"
     inkscape:deskcolor="#d1d1d1"
     inkscape:zoom="36.666667"
     inkscape:cx="12"
     inkscape:cy="12"
     inkscape:window-width="1920"
     inkscape:window-height="1126"
     inkscape:window-x="0"
     inkscape:window-y="0"
     inkscape:window-maximized="1"
     inkscape:current-layer="svg1" />
  <title
     id="title1">Forgejo</title>
  <path
     d="M16.7773 0c1.6018 0 2.9004 1.2986 2.9004 2.9005s-1.2986 2.9004-2.9004 2.9004c-1.0854 0-2.0315-.596-2.5288-1.4787H12.91c-2.3322 0-4.2272 1.8718-4.2649 4.195l-.0007 2.1175a7.0759 7.0759 0 0 1 4.148-1.4205l.1176-.001 1.3385.0002c.4973-.8827 1.4434-1.4788 2.5288-1.4788 1.6018 0 2.9004 1.2986 2.9004 2.9005s-1.2986 2.9004-2.9004 2.9004c-1.0854 0-2.0315-.596-2.5288-1.4787H12.91c-2.3322 0-4.2272 1.8718-4.2649 4.195l-.0007 2.319c.8827.4973 1.4788 1.4434 1.4788 2.5287 0 1.602-1.2986 2.9005-2.9005 2.9005-1.6018 0-2.9004-1.2986-2.9004-2.9005 0-1.0853.596-2.0314 1.4788-2.5287l-.0002-9.9831c0-3.887 3.1195-7.0453 6.9915-7.108l.1176-.001h1.3385C14.7458.5962 15.692 0 16.7773 0ZM7.2227 19.9052c-.6596 0-1.1943.5347-1.1943 1.1943s.5347 1.1943 1.1943 1.1943 1.1944-.5347 1.1944-1.1943-.5348-1.1943-1.1944-1.1943Zm9.5546-10.4644c-.6596 0-1.1944.5347-1.1944 1.1943s.5348 1.1943 1.1944 1.1943c.6596 0 1.1943-.5347 1.1943-1.1943s-.5347-1.1943-1.1943-1.1943Zm0-7.7346c-.6596 0-1.1944.5347-1.1944 1.1943s.5348 1.1943 1.1944 1.1943c.6596 0 1.1943-.5347 1.1943-1.1943s-.5347-1.1943-1.1943-1.1943Z"
     id="path1"
     style="fill:#ffffff" />
</svg>
