<?xml version="1.0" encoding="UTF-8" standalone="no"?>
<svg
   viewBox="0 0 68 75.818504"
   width="68"
   height="75.818504"
   version="1.1"
   id="svg1"
   sodipodi:docname="minecraft.svg"
   inkscape:version="1.3.2 (091e20ef0f, 2023-11-25)"
   xmlns:inkscape="http://www.inkscape.org/namespaces/inkscape"
   xmlns:sodipodi="http://sodipodi.sourceforge.net/DTD/sodipodi-0.dtd"
   xmlns="http://www.w3.org/2000/svg"
   xmlns:svg="http://www.w3.org/2000/svg">
  <defs
     id="defs1" />
  <sodipodi:namedview
     id="namedview1"
     pagecolor="#ffffff"
     bordercolor="#000000"
     borderopacity="0.25"
     inkscape:showpageshadow="2"
     inkscape:pageopacity="0.0"
     inkscape:pagecheckerboard="0"
     inkscape:deskcolor="#d1d1d1"
     inkscape:zoom="8.8"
     inkscape:cx="32.954545"
     inkscape:cy="37.045455"
     inkscape:window-width="1920"
     inkscape:window-height="1126"
     inkscape:window-x="0"
     inkscape:window-y="0"
     inkscape:window-maximized="1"
     inkscape:current-layer="svg1"
     inkscape:clip-to-page="false" />
  <path
     d="M 34,0 C 33.011518,0 32.023702,0.210215 31.103516,0.628906 L 2.931641,13.435547 C 1.149185,14.24564 0,16.027695 0,17.986328 v 39.847656 c 0,1.958633 1.148832,3.742481 2.931641,4.552734 l 28.171875,12.804688 c 1.840196,0.836135 3.952772,0.836135 5.792968,0 L 65.068359,62.386718 C 66.850815,61.576626 68,59.79457 68,57.835937 V 17.986328 c 0,-1.958633 -1.148325,-3.743499 -2.931641,-4.552734 v 0.002 L 36.896484,0.628906 C 35.976298,0.210215 34.988482,0 34,0 Z m 0,2 c 0.705518,0 1.410546,0.14991 2.068359,0.449218 l 28.171875,12.806641 a 1.0001,1.0001 0 0 0 0.002,0 c 0.446478,0.202613 0.820592,0.509513 1.111328,0.878906 L 34,28.871094 2.646484,16.134765 c 0.290691,-0.369324 0.664473,-0.675818 1.111328,-0.878906 a 1.0001,1.0001 0 0 0 0.002,0 L 31.931641,2.449218 C 32.589454,2.14991 33.294482,2 34,2 Z m -0.0039,1.71875 a 0.50005,0.50005 0 0 0 -0.166016,0.0332 l -2.52539,0.978515 a 0.50053863,0.50053863 0 1 0 0.361328,0.933594 l 2.345703,-0.908203 2.345703,0.908203 A 0.50053863,0.50053863 0 1 0 36.718756,4.730465 L 34.191412,3.75195 A 0.50005,0.50005 0 0 0 33.9961,3.71875 Z m 5.777344,2.576172 a 0.50005,0.50005 0 0 0 -0.179688,0.03711 l -4.986328,1.9375 a 0.50005,0.50005 0 0 0 0.002,0.933594 l 5.054687,1.9375 a 0.50005,0.50005 0 1 0 0.357422,-0.933594 l -3.84375,-1.474609 3.779297,-1.46875 A 0.50005,0.50005 0 0 0 39.773491,6.294923 Z M 23.195312,8.691406 a 0.50005,0.50005 0 0 0 -0.167968,0.0332 L 20.5,9.701172 a 0.50053816,0.50053816 0 1 0 0.361328,0.933593 l 2.345703,-0.90625 2.345703,0.921875 a 0.50005,0.50005 0 0 0 0.365235,0 l 2.279297,-0.888672 2.345703,0.90625 a 0.50005,0.50005 0 1 0 0.361328,-0.93164 L 28.376953,8.759765 a 0.50005,0.50005 0 0 0 -0.361328,0 L 25.736328,9.648437 23.390625,8.726562 a 0.50005,0.50005 0 0 0 -0.195313,-0.03516 z m 8.542969,3.673828 a 0.50005,0.50005 0 0 0 -0.169922,0.03516 l -4.572265,1.816407 -2.34375,-0.908203 a 0.50053816,0.50053816 0 1 0 -0.361328,0.933593 l 2.527343,0.976563 a 0.50005,0.50005 0 0 0 0.363282,0 l 4.574218,-1.816406 2.341797,0.90625 a 0.50005,0.50005 0 1 0 0.361328,-0.931641 l -2.52539,-0.978516 a 0.50005,0.50005 0 0 0 -0.195313,-0.0332 z m 23.865235,1.632813 a 0.50005,0.50005 0 0 0 -0.166016,0.96875 l 1.320312,0.509765 -1.320312,0.511719 a 0.50053863,0.50053863 0 1 0 0.361328,0.933594 l 2.525391,-0.978516 a 0.50005,0.50005 0 0 0 0,-0.931641 l -2.525391,-0.978515 a 0.50005,0.50005 0 0 0 -0.195312,-0.03516 z m -6.179688,0.703125 a 0.50005,0.50005 0 0 0 -0.207031,0.04102 l -2.345703,0.90625 -2.347656,-0.90625 a 0.50005,0.50005 0 0 0 -0.195313,-0.03711 0.50005,0.50005 0 0 0 -0.164063,0.96875 l 2.527344,0.978516 a 0.50005,0.50005 0 0 0 0.359375,0 l 2.527344,-0.978516 A 0.50005,0.50005 0 0 0 49.423828,14.701176 Z M 9.138672,15.261718 a 0.50005,0.50005 0 0 0 -0.166016,0.96875 L 11.5,17.207031 a 0.50005,0.50005 0 0 0 0.359375,0.002 l 2.28125,-0.875 2.347656,0.908203 a 0.50053816,0.50053816 0 0 0 0.361328,-0.933593 l -2.527343,-0.976563 a 0.50005,0.50005 0 0 0 -0.359375,0 l -2.28125,0.873047 -2.347657,-0.908203 A 0.50005,0.50005 0 0 0 9.138672,15.261762 Z M 2.166016,17.017578 33.5,29.746094 v 8.955078 l -1.494141,-0.476563 a 0.50005,0.50005 0 0 0 -0.652343,0.46875 l -0.05273,2.9375 -1.835937,-0.763672 0.0918,-3.263672 a 0.50005,0.50005 0 0 0 -0.292969,-0.46875 l -2.365234,-1.078125 0.04883,-2.52539 4.421875,1.726562 a 0.50005,0.50005 0 1 0 0.363281,-0.93164 l -4.761719,-1.861328 0.0918,-3.28711 A 0.50005,0.50005 0 0 0 26.738294,28.695312 L 24.142591,27.716797 A 0.50005,0.50005 0 0 0 23.46681,28.169922 L 23.38673,30.880859 21.847667,30.3125 a 0.50005,0.50005 0 0 0 -0.673828,0.455078 l -0.08203,3.007812 -1.804688,-0.673828 0.123047,-3.416015 A 0.50005,0.50005 0 0 0 19.078137,29.197265 L 16.785168,28.375 l 0.0293,-3.353516 a 0.50005,0.50005 0 0 0 -0.326172,-0.472656 l -2.460937,-0.910156 a 0.50005,0.50005 0 0 0 -0.195313,-0.03125 0.50005,0.50005 0 0 0 -0.478515,0.486328 l -0.09961,3.808594 a 0.50005,0.50005 0 1 0 0.998047,0.02734 l 0.08203,-3.111328 1.478516,0.544922 -0.03125,3.357422 a 0.50005,0.50005 0 0 0 0.330078,0.474609 l 2.285156,0.820313 -0.121093,3.410156 a 0.50005,0.50005 0 0 0 0.324218,0.486328 l 2.46875,0.921875 -0.0332,2.529297 -2.0625,-0.716797 a 0.50005,0.50005 0 1 0 -0.328125,0.94336 l 2.71875,0.945312 a 0.50005,0.50005 0 0 0 0.664063,-0.466797 l 0.04492,-3.566406 0.08203,-3.009766 1.537109,0.566407 a 0.50005,0.50005 0 0 0 0.673828,-0.453126 l 0.08008,-2.705078 1.607422,0.605469 -0.0918,3.259766 a 0.50009537,0.50009537 0 0 0 0,0.0059 v 0.01758 a 0.50009537,0.50009537 0 0 0 0,0.0039 l -0.06836,3.574219 a 0.50005,0.50005 0 0 0 0.292969,0.464844 l 2.361328,1.076172 -0.0918,3.275391 a 0.50005,0.50005 0 0 0 0.308594,0.474609 l 2.832031,1.179687 a 0.50005,0.50005 0 0 0 0.691406,-0.453125 L 32.341797,39.382812 33.5,39.75 v 34.042968 c -0.536043,-0.05406 -1.066397,-0.193797 -1.568359,-0.421874 L 6.183594,61.667968 a 0.50009537,0.50009537 0 0 0 0.0039,-0.06055 l 0.06055,-3.121094 1.919922,0.839844 A 0.50005,0.50005 0 1 0 8.568359,58.410156 L 5.964844,57.271484 a 0.50005,0.50005 0 0 0 -0.195313,-0.04102 0.50005,0.50005 0 0 0 -0.505859,0.490235 l -0.06836,3.498047 -1.435546,-0.652344 a 1.0001,1.0001 0 0 0 -0.002,0 C 2.684667,60.07866 2,59.013352 2,57.833984 V 41.505859 l 1.935547,0.732422 A 0.50005,0.50005 0 0 0 4.611328,41.789062 L 4.71875,39.097656 5.878906,39.570312 A 0.50005,0.50005 0 1 0 6.255859,38.644531 L 4.435547,37.902344 A 0.50005,0.50005 0 0 0 4.240234,37.865234 0.50005,0.50005 0 0 0 3.748047,38.345703 L 3.640625,41.058594 2,40.4375 v -6.277344 l 1.746094,0.664062 a 0.50062513,0.50062513 0 0 0 0.09766,0.05078 l 2.283203,0.857422 a 0.50005,0.50005 0 0 0 0.675781,-0.457032 l 0.05273,-2.527343 1.402343,0.533203 -0.06055,3.052734 a 0.50005,0.50005 0 0 0 0.318359,0.47461 l 2.595703,1.011718 a 0.50005,0.50005 0 0 0 0.679688,-0.441406 l 0.134765,-2.728516 1.466797,0.603516 a 0.50005,0.50005 0 1 0 0.382813,-0.923828 l -2.123047,-0.876953 a 0.50005,0.50005 0 0 0 -0.691406,0.439453 L 10.826167,36.636716 9.20312,36.003904 9.26367,32.947263 A 0.50005,0.50005 0 0 0 8.941404,32.470701 L 6.548826,31.560545 a 0.50005,0.50005 0 0 0 -0.195312,-0.03125 0.50005,0.50005 0 0 0 -0.482422,0.488281 l -0.05273,2.53125 -1.138671,-0.429688 v -5.787109 l 6.673828,2.488281 a 0.5002831,0.5002831 0 1 0 0.349609,-0.9375 L 6.81055,28.058592 6.88282,25.595701 8.66993,26.353513 a 0.50005,0.50005 0 0 0 0.695312,-0.451171 l 0.06836,-3.673829 A 0.50005,0.50005 0 0 0 8.935555,21.712888 0.50005,0.50005 0 0 0 8.433602,22.208982 L 8.378912,25.144529 6.599615,24.38867 A 0.50005,0.50005 0 0 0 5.904303,24.833982 L 5.820323,27.691404 4.35548,27.144529 a 0.50005,0.50005 0 0 0 -0.675781,0.466797 v 6.11914 L 2,33.089844 V 17.986328 c 0,-0.336782 0.06129,-0.661606 0.166016,-0.96875 z m 63.667968,0 C 65.938792,17.324828 66,17.649546 66,17.986328 v 8.158203 a 0.50005,0.50005 0 0 0 -0.08594,0.02734 l -6.291015,2.521484 v -2.699219 a 0.50005,0.50005 0 0 0 -0.65625,-0.474609 L 57.13281,26.130855 57.08008,23.30859 a 0.50005,0.50005 0 0 0 -0.523437,-0.490235 0.50005,0.50005 0 0 0 -0.160157,0.03516 l -2.453125,0.972657 -0.01758,0.0059 a 0.50005,0.50005 0 0 0 -0.04492,0.01953 l -2.458984,0.962891 a 0.50005,0.50005 0 0 0 -0.318359,0.46875 l 0.02734,3.21875 -1.496093,0.611328 -0.01758,-2.880859 a 0.50005,0.50005 0 0 0 -0.6875,-0.460938 l -2.556641,1.035156 a 0.50005,0.50005 0 0 0 -0.3125,0.464844 l 0.0098,3.294922 -1.396484,0.546875 a 0.50005,0.50005 0 0 0 -0.318359,0.462891 l -0.01172,3.1875 -1.824219,0.77539 0.0059,-2.818359 a 0.50005,0.50005 0 0 0 0,-0.0332 v -0.002 l 0.02539,-3.619141 a 0.50005,0.50005 0 0 0 -0.511719,-0.503906 0.50005,0.50005 0 0 0 -0.173828,0.03516 l -5.544922,2.224609 A 0.50005,0.50005 0 1 0 36.691477,31.75 l 4.853516,-1.947266 -0.01758,2.541016 -4.703125,1.859375 a 0.50005,0.50005 0 0 0 -0.316407,0.466797 L 36.525461,37.9375 34.5,38.660156 v -8.914062 z m -28.83789,0.320312 a 0.50005,0.50005 0 0 0 -0.169922,0.03516 l -2.279297,0.919921 -2.341797,-0.904296 a 0.50005,0.50005 0 1 0 -0.361328,0.93164 l 2.527344,0.976563 a 0.50005,0.50005 0 0 0 0.367187,-0.002 l 2.279297,-0.919922 1.785156,0.6875 a 0.500187,0.500187 0 1 0 0.359375,-0.933594 l -1.96875,-0.757812 a 0.50005,0.50005 0 0 0 -0.197265,-0.0332 z m 7.597656,0.957032 a 0.50005,0.50005 0 0 0 -0.179688,0.03711 l -2.347656,0.908203 -0.857422,-0.328125 a 0.50005,0.50005 0 1 0 -0.357422,0.933594 l 1.03711,0.396484 a 0.50005,0.50005 0 0 0 0.359375,0 l 2.525391,-0.978515 a 0.50005,0.50005 0 0 0 -0.179688,-0.96875 z m 18.923828,1.453125 a 0.50005,0.50005 0 0 0 -0.482422,0.517578 l 0.06641,3.169922 -2.152343,0.871093 a 0.5003292,0.5003292 0 1 0 0.375,0.927735 l 2.472656,-1.001953 a 0.50005,0.50005 0 0 0 0.3125,-0.47461 l -0.07422,-3.513672 a 0.50005,0.50005 0 0 0 -0.517581,-0.496093 z m -31.705078,0.0059 a 0.50005,0.50005 0 0 0 -0.181641,0.03516 l -2.52539,0.978516 a 0.50005,0.50005 0 0 0 0,0.93164 l 2.52539,0.978516 a 0.50053881,0.50053881 0 0 0 0.361329,-0.933594 l -1.322266,-0.509769 1.322266,-0.511719 A 0.50005,0.50005 0 0 0 31.8125,19.753906 Z m 7.472656,2.957031 a 0.50005,0.50005 0 0 0 -0.179687,0.03516 L 36.757812,23.6543 34.412109,22.746097 a 0.50005,0.50005 0 0 0 -0.347656,-0.0039 l -0.734375,0.261719 a 0.50005,0.50005 0 1 0 0.333984,0.941406 l 0.560547,-0.199218 2.353516,0.912109 a 0.50005,0.50005 0 0 0 0.359375,0 l 2.527344,-0.978516 a 0.50005,0.50005 0 0 0 -0.179688,-0.96875 z m 16.808594,1.337891 0.05078,2.78125 a 0.50005,0.50005 0 0 0 0.658203,0.464844 L 58.623046,26.6875 v 2.74414 a 0.50005,0.50005 0 0 0 0.6875,0.464844 L 66,27.214844 v 2.501953 l -2.417969,1.007812 a 0.50005,0.50005 0 1 0 0.384766,0.921875 L 66,30.798828 v 27.037109 c 0,1.179368 -0.684269,2.242563 -1.757812,2.730469 a 1.0001,1.0001 0 0 0 -0.002,0 L 47.22261,68.300781 47.18159,65.201172 48.30073,64.710937 A 0.50005,0.50005 0 0 0 48.128855,63.75 0.50005,0.50005 0 0 0 47.90034,63.79492 l -1.423829,0.625 a 0.50005,0.50005 0 0 0 -0.298828,0.46289 l 0.04883,3.798828 a 0.50005,0.50005 0 0 0 0.0078,0.06836 L 36.068359,73.371094 C 35.566397,73.599171 35.036043,73.738908 34.5,73.792968 V 62.972656 a 0.5003544,0.5003544 0 0 0 0.1875,-0.04102 l 2.640625,-1.14648 a 0.50005,0.50005 0 0 0 0.302734,-0.460938 l -0.01172,-3.470703 2.3125,-0.99414 a 0.50005,0.50005 0 0 0 0.302734,-0.462891 l -0.02148,-3.757812 a 0.50005,0.50005 0 0 0 -0.509766,-0.503907 0.50005,0.50005 0 0 0 -0.490234,0.509766 l 0.01953,3.427734 -2.310547,0.992188 a 0.50005,0.50005 0 0 0 -0.302734,0.460937 l 0.0098,3.472657 L 34.5,61.921875 V 39.722656 l 2.695312,-0.960938 a 0.50005,0.50005 0 0 0 0.332032,-0.474609 l -0.01758,-3.28125 4.013672,-1.585937 -0.0059,2.875 a 0.50005,0.50005 0 0 0 0.695313,0.460937 l 2.826171,-1.201172 a 0.50005,0.50005 0 0 0 0.30473,-0.457031 l 0.0098,-3.177734 1.398437,-0.546875 a 0.50005,0.50005 0 0 0 0.318359,-0.466797 l -0.0098,-3.298828 1.560547,-0.63086 0.01758,2.884766 a 0.50005,0.50005 0 0 0 0.689453,0.458984 l 2.494141,-1.021484 a 0.50005,0.50005 0 0 0 0.310546,-0.466797 l -0.02539,-3.212891 1.511719,-0.591796 0.06836,6.029296 -4.601562,1.826172 a 0.50005,0.50005 0 0 0 -0.316407,0.466797 l 0.01953,3.285156 -2.255859,0.921875 a 0.50016049,0.50016049 0 0 0 0.378906,0.925782 l 2.566407,-1.048828 a 0.50005,0.50005 0 0 0 0.310546,-0.466797 l -0.01758,-3.28125 4.603516,-1.826172 a 0.50005,0.50005 0 0 0 0.316406,-0.470703 l -0.07617,-6.753907 z M 13.753906,29.1875 a 0.50005,0.50005 0 0 0 -0.5,0.498047 l -0.02539,1.517578 a 0.50006107,0.50006107 0 1 0 1,0.01563 l 0.02539,-1.515625 a 0.50005,0.50005 0 0 0 -0.5,-0.515625 z m 42.953125,0.740234 a 0.50005,0.50005 0 0 0 -0.488281,0.513672 l 0.03906,3.59375 a 0.50005,0.50005 0 0 0 0.6875,0.457031 l 1.710938,-0.697265 0.03711,2.269531 -2.24414,0.900391 a 0.50005,0.50005 0 0 0 -0.314453,0.46289 l 0.002,3.625 a 0.50005,0.50005 0 1 0 1,0 l -0.002,-3.287109 2.25,-0.900391 a 0.50005,0.50005 0 0 0 0.3125,-0.472656 l -0.05273,-3.345703 A 0.50005,0.50005 0 0 0 58.955078,32.591797 L 57.25,33.289062 57.21875,30.429687 a 0.50005,0.50005 0 0 0 -0.511719,-0.501953 z m 4.960938,1.582031 a 0.50005,0.50005 0 0 0 -0.484375,0.513672 l 0.05273,3.365235 a 0.50006107,0.50006107 0 0 0 1,-0.01563 l -0.05273,-3.365235 A 0.50005,0.50005 0 0 0 61.667969,31.50976 Z m -9.646485,3.808594 a 0.50005,0.50005 0 0 0 -0.492187,0.507813 l 0.002,3.40039 -2.320312,0.978516 a 0.50005,0.50005 0 1 0 0.386718,0.921875 l 2.626953,-1.107422 a 0.50005,0.50005 0 0 0 0.306641,-0.460937 l -0.002,-3.734376 a 0.50005,0.50005 0 0 0 -0.507813,-0.505859 z m -28.011718,3.373047 a 0.50005,0.50005 0 0 0 -0.492188,0.507812 v 3.640626 a 0.50005,0.50005 0 0 0 0.300781,0.458984 l 2.580079,1.113281 a 0.50005,0.50005 0 0 0 0.697265,-0.462891 l -0.02539,-3.767578 a 0.50005,0.50005 0 1 0 -1,0.0078 l 0.01953,3 -1.572266,-0.677735 v -3.3125 a 0.50005,0.50005 0 0 0 -0.507811,-0.507799 z m 36.917968,0.673828 a 0.50005,0.50005 0 0 0 -0.482422,0.515625 l 0.06641,3.630859 a 0.50005,0.50005 0 0 0 0.693359,0.453126 l 1.828125,-0.769532 0.06055,2.90625 a 0.50011538,0.50011538 0 1 0 1,-0.02148 l -0.07617,-3.642578 a 0.50005,0.50005 0 0 0 -0.693359,-0.451172 l -1.826172,0.769531 -0.05273,-2.892578 a 0.50005,0.50005 0 0 0 -0.517578,-0.498047 z m -23.285156,2.996094 a 0.50005,0.50005 0 0 0 -0.49414,0.505859 l -0.0078,3.69336 a 0.50005,0.50005 0 0 0 0.6875,0.464843 l 1.933594,-0.783203 -0.02148,3.001953 a 0.50005,0.50005 0 0 0 0.705078,0.460938 L 42.72658,48.68164 A 0.50005,0.50005 0 1 0 42.318377,47.769531 L 40.746112,48.472656 40.767592,45.5 a 0.50005,0.50005 0 0 0 -0.6875,-0.466797 l -1.9375,0.785156 0.0059,-2.949219 a 0.50005,0.50005 0 0 0 -0.50586,-0.507812 z m 7.873047,0.464844 a 0.50005,0.50005 0 0 0 -0.167969,0.0332 l -2.701172,1.042969 a 0.50018654,0.50018654 0 1 0 0.359375,0.933593 l 2.017579,-0.779297 -0.01563,2.90625 a 0.50005,0.50005 0 0 0 0.691407,0.464844 l 1.912109,-0.798828 0.0078,2.638672 -2.304688,0.970703 a 0.50005,0.50005 0 1 0 0.386736,0.921878 l 2.613281,-1.099609 a 0.50005,0.50005 0 0 0 0.304688,-0.462891 l -0.0098,-3.71875 a 0.50005,0.50005 0 0 0 -0.693359,-0.458984 l -1.904297,0.792968 0.01563,-2.884765 a 0.50005,0.50005 0 0 0 -0.51169,-0.501953 z M 18.8125,43.875 a 0.50005,0.50005 0 0 0 -0.503906,0.496094 L 18.248047,47.298828 16.375,46.501953 a 0.50005,0.50005 0 1 0 -0.390625,0.919922 l 2.552734,1.085937 a 0.50005,0.50005 0 0 0 0.695313,-0.449218 l 0.07617,-3.666016 A 0.50005,0.50005 0 0 0 18.8125,43.875 Z m 13.050781,1.753906 a 0.50005,0.50005 0 0 0 -0.492187,0.505859 v 2.9375 l -0.546875,-0.216797 a 0.50014619,0.50014619 0 0 0 -0.369141,0.929688 l 1.230469,0.488281 a 0.50005,0.50005 0 0 0 0.685547,-0.464843 v -3.673829 a 0.50005,0.50005 0 0 0 -0.507813,-0.505859 z m -7.865234,0.460938 a 0.50005,0.50005 0 0 0 -0.498047,0.5 v 3.658203 a 0.50005,0.50005 0 1 0 1,0 v -2.908203 l 1.625,0.677734 a 0.50037562,0.50037562 0 0 0 0.384766,-0.923828 l -2.31836,-0.964844 a 0.50005,0.50005 0 0 0 -0.193359,-0.03906 z M 8.513672,46.998047 a 0.50005,0.50005 0 0 0 -0.199219,0.96289 l 2.220703,0.947266 -0.02344,2.595703 L 8.638669,50.71289 A 0.50005,0.50005 0 0 0 7.943356,51.164062 L 7.890626,54.115234 6.01172,53.310547 a 0.50009302,0.50009302 0 1 0 -0.392578,0.919921 l 2.560547,1.09375 A 0.50005,0.50005 0 0 0 8.875,54.875 l 0.05469,-2.953125 1.882812,0.792969 a 0.50005,0.50005 0 0 0 0.693359,-0.457032 l 0.0332,-3.673828 A 0.50005,0.50005 0 0 0 11.234374,48.11914 L 8.70703,47.041015 a 0.50005,0.50005 0 0 0 -0.193359,-0.04297 z m 51.105469,0.623047 a 0.50005,0.50005 0 0 0 -0.173829,0.03906 l -2.544921,1.082031 a 0.50099177,0.50099177 0 1 0 0.392578,0.921875 l 1.861328,-0.792968 0.04687,2.955078 a 0.50005,0.50005 0 0 0 0.697266,0.453125 l 1.855468,-0.798829 0.05469,2.96875 a 0.50007726,0.50007726 0 1 0 1,-0.01758 l -0.06836,-3.71289 a 0.50005,0.50005 0 0 0 -0.697265,-0.449219 l -1.853516,0.794922 -0.04687,-2.953125 a 0.50005,0.50005 0 0 0 -0.523439,-0.490232 z m -31.671875,0.101562 a 0.50005,0.50005 0 0 0 -0.167969,0.96875 l 0.998047,0.390625 a 0.50005,0.50005 0 1 0 0.363281,-0.931641 l -0.998047,-0.390625 a 0.50005,0.50005 0 0 0 -0.195312,-0.03711 z m 0.332031,4.292969 a 0.50005,0.50005 0 0 0 -0.490235,0.507812 l 0.02539,7.611328 a 0.50005,0.50005 0 0 0 0.300781,0.455079 l 2.359375,1.035156 0.07031,3.523437 a 0.50009536,0.50009536 0 1 0 1,-0.01953 L 31.46875,61.285156 A 0.50005,0.50005 0 0 0 31.169922,60.83789 l -2.355469,-1.033203 -0.02539,-7.285156 a 0.50005,0.50005 0 0 0 -0.509766,-0.503906 z m 26.277344,1.464843 a 0.50005,0.50005 0 0 0 -0.496094,0.501954 l -0.02734,3.480468 -2.380859,1.013672 A 0.50005,0.50005 0 0 0 51.34766,58.93164 l -0.03516,3.34961 -1.298828,0.492187 a 0.50005543,0.50005543 0 0 0 0.353516,0.935547 l 1.61914,-0.613281 a 0.50005,0.50005 0 0 0 0.322266,-0.462891 l 0.03516,-3.365234 2.382812,-1.013672 a 0.50005,0.50005 0 0 0 0.304688,-0.455078 l 0.0293,-3.808594 A 0.50005,0.50005 0 0 0 54.556648,53.480468 Z M 16.121094,53.9375 a 0.50005,0.50005 0 0 0 -0.492188,0.505859 v 3.046875 l -4.474609,-1.955078 a 0.50035486,0.50035486 0 1 0 -0.398438,0.917969 l 5.173829,2.257812 a 0.50005,0.50005 0 0 0 0.699218,-0.457031 V 54.443359 A 0.50005,0.50005 0 0 0 16.121094,53.9375 Z m 2.640625,1.132812 a 0.50005,0.50005 0 0 0 -0.201172,0.960938 l 2.310547,1 v 3.46289 a 0.50005,0.50005 0 1 0 1,0 V 56.703125 A 0.50005,0.50005 0 0 0 21.568359,56.24414 l -2.611328,-1.130859 a 0.50005,0.50005 0 0 0 -0.195312,-0.04297 z m 26.201172,2.511719 a 0.50005,0.50005 0 0 0 -0.488282,0.511719 l 0.02734,3.353515 -2.273437,0.957032 a 0.50005,0.50005 0 0 0 -0.304688,0.478515 l 0.113281,3.3125 -4.859375,2.109375 a 0.50005,0.50005 0 1 0 0.396485,0.917969 l 5.173828,-2.246094 A 0.50005,0.50005 0 0 0 43.048824,66.5 l -0.113281,-3.308594 2.261719,-0.953125 a 0.50005,0.50005 0 0 0 0.30664,-0.464844 l -0.0293,-3.6875 A 0.50005,0.50005 0 0 0 44.962884,57.582031 Z M 9.892578,59.029297 a 0.50005,0.50005 0 0 0 -0.185547,0.955078 l 0.951172,0.447265 a 0.50005,0.50005 0 1 0 0.425781,-0.904296 l -0.949218,-0.447266 a 0.50005,0.50005 0 0 0 -0.242188,-0.05078 z m 0.998047,2.15625 A 0.50005,0.50005 0 0 0 10.392578,61.6875 l -0.0098,0.951172 a 0.50005,0.50005 0 1 0 1,0.0098 l 0.0098,-0.951172 a 0.50005,0.50005 0 0 0 -0.501953,-0.511718 z"
     id="path1"
     style="fill:#ffffff" />
</svg>
