<?xml version="1.0" encoding="UTF-8" standalone="no"?>
<svg
   role="img"
   viewBox="0 0 24 24"
   version="1.1"
   id="svg1"
   sodipodi:docname="nginx.svg"
   inkscape:version="1.3.2 (091e20ef0f, 2023-11-25)"
   xmlns:inkscape="http://www.inkscape.org/namespaces/inkscape"
   xmlns:sodipodi="http://sodipodi.sourceforge.net/DTD/sodipodi-0.dtd"
   xmlns="http://www.w3.org/2000/svg"
   xmlns:svg="http://www.w3.org/2000/svg">
  <defs
     id="defs1" />
  <sodipodi:namedview
     id="namedview1"
     pagecolor="#ffffff"
     bordercolor="#000000"
     borderopacity="0.25"
     inkscape:showpageshadow="2"
     inkscape:pageopacity="0.0"
     inkscape:pagecheckerboard="0"
     inkscape:deskcolor="#d1d1d1"
     inkscape:zoom="36.666667"
     inkscape:cx="12"
     inkscape:cy="12"
     inkscape:window-width="1920"
     inkscape:window-height="1126"
     inkscape:window-x="0"
     inkscape:window-y="0"
     inkscape:window-maximized="1"
     inkscape:current-layer="svg1" />
  <title
     id="title1">NGINX</title>
  <path
     d="M12 0L1.605 6v12L12 24l10.395-6V6L12 0zm6 16.59c0 .705-.646 1.29-1.529 1.29-.631 0-1.351-.255-1.801-.81l-6-7.141v6.66c0 .721-.57 1.29-1.274 1.29H7.32c-.721 0-1.29-.6-1.29-1.29V7.41c0-.705.63-1.29 1.5-1.29.646 0 1.38.255 1.83.81l5.97 7.141V7.41c0-.721.6-1.29 1.29-1.29h.075c.72 0 1.29.6 1.29 1.29v9.18H18z"
     id="path1"
     style="fill:#ffffff" />
</svg>
