<?xml version="1.0" encoding="UTF-8" standalone="no"?>
<svg
   role="img"
   viewBox="0 0 24 24"
   version="1.1"
   id="svg1"
   sodipodi:docname="radarr.svg"
   inkscape:version="1.3.2 (091e20ef0f, 2023-11-25)"
   xmlns:inkscape="http://www.inkscape.org/namespaces/inkscape"
   xmlns:sodipodi="http://sodipodi.sourceforge.net/DTD/sodipodi-0.dtd"
   xmlns="http://www.w3.org/2000/svg"
   xmlns:svg="http://www.w3.org/2000/svg">
  <defs
     id="defs1" />
  <sodipodi:namedview
     id="namedview1"
     pagecolor="#ffffff"
     bordercolor="#000000"
     borderopacity="0.25"
     inkscape:showpageshadow="2"
     inkscape:pageopacity="0.0"
     inkscape:pagecheckerboard="0"
     inkscape:deskcolor="#d1d1d1"
     inkscape:zoom="36.666667"
     inkscape:cx="12"
     inkscape:cy="12"
     inkscape:window-width="1920"
     inkscape:window-height="1126"
     inkscape:window-x="0"
     inkscape:window-y="0"
     inkscape:window-maximized="1"
     inkscape:current-layer="svg1" />
  <title
     id="title1">radarr</title>
  <path
     d="M5.274 0C3.189.039 1.19 1.547 1.19 4.705l.184 14.518c0 1.47 1.103 2.205 2.573 2.021L3.764 3.786c0-1.654.919-1.838 2.022-1.103l14.7 8.27c1.103.734 1.655 1.47 1.838 2.756.92-1.654.552-4.043-1.286-5.33L7.991.846A4.559 4.559 0 0 0 5.274.001zm1.982 6.91-.184 10.107 9.004-5.146Zm13.598 6.064-15.068 8.82c-.92.552-2.022.736-3.124.368.918 1.47 3.307 2.389 5.145 1.47l12.68-7.35c1.102-.736 1.286-2.022.367-3.308z"
     id="path1"
     style="fill:#ffffff" />
</svg>
