<?xml version="1.0" encoding="UTF-8" standalone="no"?>
<!-- Created with Inkscape (http://www.inkscape.org/) -->

<svg
   width="458.62234"
   height="583.64679"
   id="svg4190"
   version="1.1"
   inkscape:version="1.2.2 (b0a8486541, 2022-12-01)"
   sodipodi:docname="steirernix.svg"
   inkscape:export-filename="/home/flo/Documents/projects/linuxtage/gltgit/glt12/grafiken/logo/steirertux.png"
   inkscape:export-xdpi="138.78256"
   inkscape:export-ydpi="138.78256"
   enable-background="new"
   xmlns:inkscape="http://www.inkscape.org/namespaces/inkscape"
   xmlns:sodipodi="http://sodipodi.sourceforge.net/DTD/sodipodi-0.dtd"
   xmlns="http://www.w3.org/2000/svg"
   xmlns:svg="http://www.w3.org/2000/svg"
   xmlns:rdf="http://www.w3.org/1999/02/22-rdf-syntax-ns#"
   xmlns:cc="http://creativecommons.org/ns#"
   xmlns:dc="http://purl.org/dc/elements/1.1/">
  <defs
     id="defs4192" />
  <sodipodi:namedview
     id="base"
     pagecolor="#8d8d8d"
     bordercolor="#666666"
     borderopacity="1.0"
     inkscape:pageopacity="0.37647059"
     inkscape:pageshadow="2"
     inkscape:zoom="1.9737965"
     inkscape:cx="259.14525"
     inkscape:cy="230.52022"
     inkscape:document-units="px"
     inkscape:current-layer="layer7"
     showgrid="false"
     inkscape:window-width="1696"
     inkscape:window-height="1376"
     inkscape:window-x="0"
     inkscape:window-y="0"
     inkscape:window-maximized="1"
     units="mm"
     fit-margin-top="0.6"
     fit-margin-right="0.6"
     fit-margin-bottom="0.6"
     fit-margin-left="0.6"
     inkscape:showpageshadow="0"
     inkscape:pagecheckerboard="0"
     inkscape:deskcolor="#8d8d8d" />
  <metadata
     id="metadata4195">
    <rdf:RDF>
      <cc:Work
         rdf:about="">
        <dc:format>image/svg+xml</dc:format>
        <dc:type
           rdf:resource="http://purl.org/dc/dcmitype/StillImage" />
      </cc:Work>
    </rdf:RDF>
  </metadata>
  <g
     inkscape:groupmode="layer"
     id="layer7"
     inkscape:label="Tux"
     style="display:inline">
    <g
       id="g3093">
      <path
         style="fill:#006c34;fill-opacity:1;fill-rule:evenodd;stroke:#000000;stroke-width:6.57600021;stroke-linecap:butt;stroke-linejoin:miter;stroke-miterlimit:10;stroke-opacity:1;stroke-dasharray:none;display:inline"
         d="m 289.88849,103.24784 c 24.9636,-0.49799 36.64782,21.81701 21.99644,42.53264 -12.79239,20.09626 -40.6322,20.42579 -62.60862,23.36844 -29.88638,1.73177 -61.55246,3.27129 -89.66445,-7.97371 -16.6897,-7.27789 -37.15611,-38.71843 -16.44443,-47.03439 21.89678,-8.79179 20.77367,-4.84393 23.76492,-20.642574 3.99544,-21.10253 13.82487,-43.1248 32.08351,-57.09464 18.07979,-9.5916 20.26033,28.01404 32.68472,4.33361 15.25333,-21.43753 39.38222,-6.61056 44.05893,14.89553 3.52927,16.22952 9.92567,31.62192 14.12898,47.615094 z"
         id="path4116"
         inkscape:connector-curvature="0"
         sodipodi:nodetypes="ccccssccsc" />
      <path
         sodipodi:nodetypes="cc"
         style="fill:none;stroke:#000000;stroke-width:6.57633829;stroke-linecap:butt;stroke-linejoin:miter;stroke-miterlimit:10;stroke-opacity:1;stroke-dasharray:none;display:inline"
         d="m 139.46118,117.14937 c 33.62867,45.49425 159.89149,33.56521 178.34525,2.84522"
         id="path4120-6"
         inkscape:connector-curvature="0" />
      <path
         style="fill:#000000;fill-opacity:1;fill-rule:evenodd;stroke:none;stroke-width:0.17756335000000001;stroke-linecap:butt;stroke-linejoin:miter;stroke-miterlimit:10;stroke-opacity:1;stroke-dasharray:none;display:inline"
         d="m 159.54841,106.89551 c 37.36717,10.26274 79.3151,17.18779 116.77335,3.58875 9.47785,-3.23766 16.34199,-14.762433 16.75462,4.34473 0.24653,11.41565 8.53529,19.30305 1.69723,22.65883 -40.44952,15.93698 -101.9237,15.01864 -136.25135,-1.80879 -5.15636,-6.86691 0.7629,-20.13781 1.02615,-28.78352 z"
         id="path4118"
         inkscape:connector-curvature="0"
         sodipodi:nodetypes="ccsccc" />
      <g
         id="g3057"
         style="display:inline"
         transform="translate(-145.68882,-239.1525)">
        <path
           inkscape:connector-curvature="0"
           id="path4124"
           d="m 517.02542,288.78824 c -28.76116,23.07925 -56.39823,48.64105 -72.6807,81.31492 -18.78146,-0.49478 -11.03643,-18.05637 -11.64245,-30.61129 0.69491,-27.13576 -0.96154,-54.29894 -4.56026,-81.22397 32.14094,-3.0752 68.01,6.11296 88.88341,30.52034 z"
           style="fill:#ffffff;fill-opacity:1;fill-rule:evenodd;stroke:#000000;stroke-width:6.57633829;stroke-linecap:butt;stroke-linejoin:miter;stroke-miterlimit:10;stroke-opacity:1;stroke-dasharray:none" />
        <path
           sodipodi:nodetypes="ccccc"
           inkscape:connector-curvature="0"
           id="path4126"
           d="m 430.45667,278.97813 c 24.11568,4.78447 47.03876,11.62624 68.3531,23.44545 -19.27943,17.39006 -32.80723,34.21969 -32.80723,34.21969 -12.89435,-11.14801 -32.50544,-13.91412 -32.50544,-13.91412 0,0 -2.30645,-33.34508 -3.04043,-43.75102 z"
           style="fill:#000000;fill-opacity:1;fill-rule:evenodd;stroke:#000000;stroke-width:6.57633829;stroke-linecap:butt;stroke-linejoin:miter;stroke-miterlimit:10;stroke-opacity:1;stroke-dasharray:none" />
      </g>
    </g>
  </g>
</svg>
