<?xml version="1.0" encoding="UTF-8" standalone="no"?>
<svg
   role="img"
   viewBox="0 0 24 24"
   version="1.1"
   id="svg1"
   sodipodi:docname="homeassistant.svg"
   inkscape:version="1.3.2 (091e20ef0f, 2023-11-25)"
   xmlns:inkscape="http://www.inkscape.org/namespaces/inkscape"
   xmlns:sodipodi="http://sodipodi.sourceforge.net/DTD/sodipodi-0.dtd"
   xmlns="http://www.w3.org/2000/svg"
   xmlns:svg="http://www.w3.org/2000/svg">
  <defs
     id="defs1" />
  <sodipodi:namedview
     id="namedview1"
     pagecolor="#ffffff"
     bordercolor="#000000"
     borderopacity="0.25"
     inkscape:showpageshadow="2"
     inkscape:pageopacity="0.0"
     inkscape:pagecheckerboard="0"
     inkscape:deskcolor="#d1d1d1"
     inkscape:zoom="36.666667"
     inkscape:cx="12"
     inkscape:cy="12"
     inkscape:window-width="1920"
     inkscape:window-height="1126"
     inkscape:window-x="0"
     inkscape:window-y="0"
     inkscape:window-maximized="1"
     inkscape:current-layer="svg1" />
  <title
     id="title1">Home Assistant</title>
  <path
     d="M22.939 10.627 13.061.749a1.505 1.505 0 0 0-2.121 0l-9.879 9.878C.478 11.21 0 12.363 0 13.187v9c0 .826.675 1.5 1.5 1.5h9.227l-4.063-4.062a2.034 2.034 0 0 1-.664.113c-1.13 0-2.05-.92-2.05-2.05s.92-2.05 2.05-2.05 2.05.92 2.05 2.05c0 .233-.041.456-.113.665l3.163 3.163V9.928a2.05 2.05 0 0 1-1.15-1.84c0-1.13.92-2.05 2.05-2.05s2.05.92 2.05 2.05a2.05 2.05 0 0 1-1.15 1.84v8.127l3.146-3.146A2.051 2.051 0 0 1 18 12.239c1.13 0 2.05.92 2.05 2.05s-.92 2.05-2.05 2.05c-.25 0-.488-.047-.709-.13L12.9 20.602v3.088h9.6c.825 0 1.5-.675 1.5-1.5v-9c0-.825-.477-1.977-1.061-2.561z"
     id="path1"
     style="fill:#ffffff" />
</svg>
