<?xml version="1.0" encoding="UTF-8" standalone="no"?>
<svg
   role="img"
   viewBox="0 0 24 24"
   version="1.1"
   id="svg1"
   sodipodi:docname="jellyfin.svg"
   inkscape:version="1.3.2 (091e20ef0f, 2023-11-25)"
   xmlns:inkscape="http://www.inkscape.org/namespaces/inkscape"
   xmlns:sodipodi="http://sodipodi.sourceforge.net/DTD/sodipodi-0.dtd"
   xmlns="http://www.w3.org/2000/svg"
   xmlns:svg="http://www.w3.org/2000/svg">
  <defs
     id="defs1" />
  <sodipodi:namedview
     id="namedview1"
     pagecolor="#ffffff"
     bordercolor="#000000"
     borderopacity="0.25"
     inkscape:showpageshadow="2"
     inkscape:pageopacity="0.0"
     inkscape:pagecheckerboard="0"
     inkscape:deskcolor="#d1d1d1"
     inkscape:zoom="36.666667"
     inkscape:cx="12"
     inkscape:cy="12"
     inkscape:window-width="1920"
     inkscape:window-height="1126"
     inkscape:window-x="0"
     inkscape:window-y="0"
     inkscape:window-maximized="1"
     inkscape:current-layer="svg1" />
  <title
     id="title1">Jellyfin</title>
  <path
     d="M12 .002C8.826.002-1.398 18.537.16 21.666c1.56 3.129 22.14 3.094 23.682 0C25.384 18.573 15.177 0 12 0zm7.76 18.949c-1.008 2.028-14.493 2.05-15.514 0C3.224 16.9 9.92 4.755 12.003 4.755c2.081 0 8.77 12.166 7.759 14.196zM12 9.198c-1.054 0-4.446 6.15-3.93 7.189.518 1.04 7.348 1.027 7.86 0 .511-1.027-2.874-7.19-3.93-7.19z"
     id="path1"
     style="fill:#ffffff" />
</svg>
