<?xml version="1.0" encoding="UTF-8" standalone="no"?>
<svg
   role="img"
   viewBox="0 0 24 24"
   version="1.1"
   id="svg1"
   sodipodi:docname="mqtt.svg"
   inkscape:version="1.3.2 (091e20ef0f, 2023-11-25)"
   xmlns:inkscape="http://www.inkscape.org/namespaces/inkscape"
   xmlns:sodipodi="http://sodipodi.sourceforge.net/DTD/sodipodi-0.dtd"
   xmlns="http://www.w3.org/2000/svg"
   xmlns:svg="http://www.w3.org/2000/svg">
  <defs
     id="defs1" />
  <sodipodi:namedview
     id="namedview1"
     pagecolor="#ffffff"
     bordercolor="#000000"
     borderopacity="0.25"
     inkscape:showpageshadow="2"
     inkscape:pageopacity="0.0"
     inkscape:pagecheckerboard="0"
     inkscape:deskcolor="#d1d1d1"
     inkscape:zoom="36.666667"
     inkscape:cx="12"
     inkscape:cy="12"
     inkscape:window-width="1920"
     inkscape:window-height="1126"
     inkscape:window-x="0"
     inkscape:window-y="0"
     inkscape:window-maximized="1"
     inkscape:current-layer="svg1" />
  <title
     id="title1">MQTT</title>
  <path
     d="M10.657 23.994h-9.45A1.212 1.212 0 0 1 0 22.788v-9.18h.071c5.784 0 10.504 4.65 10.586 10.386Zm7.606 0h-4.045C14.135 16.246 7.795 9.977 0 9.942V6.038h.071c9.983 0 18.121 8.044 18.192 17.956Zm4.53 0h-.97C21.754 12.071 11.995 2.407 0 2.372v-1.16C0 .55.544.006 1.207.006h7.64C15.733 2.49 21.257 7.789 24 14.508v8.291c0 .663-.544 1.195-1.207 1.195ZM16.713.006h6.092A1.19 1.19 0 0 1 24 1.2v5.914c-.91-1.242-2.046-2.65-3.158-3.762C19.588 2.11 18.122.987 16.714.005Z"
     id="path1"
     style="fill:#ffffff" />
</svg>
