<?xml version="1.0" encoding="UTF-8" standalone="no"?>
<svg
   role="img"
   viewBox="0 0 24 24"
   version="1.1"
   id="svg1"
   sodipodi:docname="pihole.svg"
   inkscape:version="1.3.2 (091e20ef0f, 2023-11-25)"
   xmlns:inkscape="http://www.inkscape.org/namespaces/inkscape"
   xmlns:sodipodi="http://sodipodi.sourceforge.net/DTD/sodipodi-0.dtd"
   xmlns="http://www.w3.org/2000/svg"
   xmlns:svg="http://www.w3.org/2000/svg">
  <defs
     id="defs1" />
  <sodipodi:namedview
     id="namedview1"
     pagecolor="#ffffff"
     bordercolor="#000000"
     borderopacity="0.25"
     inkscape:showpageshadow="2"
     inkscape:pageopacity="0.0"
     inkscape:pagecheckerboard="0"
     inkscape:deskcolor="#d1d1d1"
     inkscape:zoom="36.666667"
     inkscape:cx="12"
     inkscape:cy="12"
     inkscape:window-width="1920"
     inkscape:window-height="1126"
     inkscape:window-x="0"
     inkscape:window-y="0"
     inkscape:window-maximized="1"
     inkscape:current-layer="svg1" />
  <title
     id="title1">Pi-hole</title>
  <path
     d="M4.344 0c.238 4.792 3.256 7.056 6.252 7.376.165-1.692-4.319-5.6-4.319-5.6-.008-.011.009-.025.019-.014 0 0 4.648 4.01 5.423 5.645 2.762-.15 5.196-1.947 5-4.912 0 0-4.12-.613-5 4.618C11.48 2.753 8.993 0 4.344 0zM12 7.682v.002a3.68 3.68 0 0 0-2.591 1.077L4.94 13.227a3.683 3.683 0 0 0-.86 1.356 3.31 3.31 0 0 0-.237 1.255A3.681 3.681 0 0 0 4.92 18.45l4.464 4.466a3.69 3.69 0 0 0 2.251 1.06l.002.001c.093.01.187.015.28.017l-.1-.008c.06.003.117.009.177.009l-.077-.001L12 24l-.004-.005a3.68 3.68 0 0 0 2.61-1.077l4.469-4.465a3.683 3.683 0 0 0 1.006-1.888l.012-.063a3.682 3.682 0 0 0 .057-.541l.003-.061c0-.017.003-.05.004-.06h-.002a3.683 3.683 0 0 0-1.077-2.607l-4.466-4.468a3.694 3.694 0 0 0-1.564-.927l-.07-.02a3.43 3.43 0 0 0-.946-.133L12 7.682zm3.165 3.357c.023 1.748-1.33 3.078-1.33 4.806.164 2.227 1.733 3.207 3.266 3.146-.035.003-.068.007-.104.009-1.847.135-3.209-1.326-5.002-1.326-2.23.164-3.21 1.736-3.147 3.27l-.008-.104c-.133-1.847 1.328-3.21 1.328-5.002-.173-2.32-1.867-3.284-3.46-3.132.1-.011.203-.021.31-.027 1.847-.133 3.209 1.328 5.002 1.328 2.082-.155 3.074-1.536 3.145-2.968zM4.344 0c.238 4.792 3.256 7.056 6.252 7.376.165-1.692-4.319-5.6-4.319-5.6-.008-.011.009-.025.019-.014 0 0 4.648 4.01 5.423 5.645 2.762-.15 5.196-1.947 5-4.912 0 0-4.12-.613-5 4.618C11.48 2.753 8.993 0 4.344 0zM12 7.682v.002a3.68 3.68 0 0 0-2.591 1.077L4.94 13.227a3.683 3.683 0 0 0-.86 1.356 3.31 3.31 0 0 0-.237 1.255A3.681 3.681 0 0 0 4.92 18.45l4.464 4.466a3.69 3.69 0 0 0 2.251 1.06l.002.001c.093.01.187.015.28.017l-.1-.008c.06.003.117.009.177.009l-.077-.001L12 24l-.004-.005a3.68 3.68 0 0 0 2.61-1.077l4.469-4.465a3.683 3.683 0 0 0 1.006-1.888l.012-.063a3.682 3.682 0 0 0 .057-.541l.003-.061c0-.017.003-.05.004-.06h-.002a3.683 3.683 0 0 0-1.077-2.607l-4.466-4.468a3.694 3.694 0 0 0-1.564-.927l-.07-.02a3.43 3.43 0 0 0-.946-.133L12 7.682zm3.165 3.357c.023 1.748-1.33 3.078-1.33 4.806.164 2.227 1.733 3.207 3.266 3.146-.035.003-.068.007-.104.009-1.847.135-3.209-1.326-5.002-1.326-2.23.164-3.21 1.736-3.147 3.27l-.008-.104c-.133-1.847 1.328-3.21 1.328-5.002-.173-2.32-1.867-3.284-3.46-3.132.1-.011.203-.021.31-.027 1.847-.133 3.209 1.328 5.002 1.328 2.082-.155 3.074-1.536 3.145-2.968z"
     id="path1"
     style="fill:#ffffff" />
</svg>
